<?xml version="1.0" ?><svg id="object" viewBox="0 0 32 32" xmlns="http://www.w3.org/2000/svg"><title/><path d="M13.93,27.19H5.5a1,1,0,0,1,0-2h7.74A9.87,9.87,0,0,1,13,23a9.63,9.63,0,0,1,.32-2.48H5.5a1,1,0,0,1,0-2h8.57A10,10,0,0,1,19,13.85H5.5a1,1,0,0,1,0-2h14a1,1,0,0,1,1,1,1,1,0,0,1-.14.51A9.62,9.62,0,0,1,23,13c.34,0,.67,0,1,.05V4a3,3,0,0,0-3-3H4A3,3,0,0,0,1,4V28a3,3,0,0,0,3,3H17A10,10,0,0,1,13.93,27.19ZM5.5,5.19h14a1,1,0,0,1,0,2H5.5a1,1,0,0,1,0-2Z"/><path d="M23,15a8,8,0,1,0,8,8A8,8,0,0,0,23,15Zm3.16,7.25-3.46,3a1,1,0,0,1-.65.25,1,1,0,0,1-.66-.25l-1.55-1.34a1,1,0,0,1,1.32-1.51l.89.77,2.79-2.42a1,1,0,1,1,1.32,1.5Z"/></svg>