<?xml version="1.0" ?><svg height="32" id="icon" viewBox="0 0 32 32" width="32" xmlns="http://www.w3.org/2000/svg"><defs><style>
      .cls-1 {
        fill: none;
      }
    </style></defs><path class="cls-1" d="M16,9.0752a7.9941,7.9941,0,0,1,0,13.85,7.9941,7.9941,0,0,1,0-13.85m0-2.2373a9.9953,9.9953,0,0,0,0,18.3242A9.9953,9.9953,0,0,0,16,6.8379Z" id="inner-path"/><path d="M10,16a9.9976,9.9976,0,0,1,6-9.1621,10,10,0,1,0,0,18.3242A9.9976,9.9976,0,0,1,10,16Z"/><path d="M16,9.0752a7.9941,7.9941,0,0,0,0,13.85,7.9941,7.9941,0,0,0,0-13.85Z"/><path d="M20,6a9.9539,9.9539,0,0,0-4,.8379,9.9953,9.9953,0,0,1,0,18.3242A9.9988,9.9988,0,1,0,20,6Z"/><rect class="cls-1" data-name=" Transparent Rectangle " height="32" id="_Transparent_Rectangle_" width="32"/></svg>