<?xml version="1.0" ?><svg viewBox="0 0 24 24" xmlns="http://www.w3.org/2000/svg"><g data-name="4. Trash" id="_4._Trash"><path d="M18,4H17V3a3,3,0,0,0-3-3H10A3,3,0,0,0,7,3V4H6A3,3,0,0,0,3,7V9a1,1,0,0,0,1,1h.069l.8,11.214A3.012,3.012,0,0,0,7.862,24h8.276a3.012,3.012,0,0,0,2.992-2.786L19.931,10H20a1,1,0,0,0,1-1V7A3,3,0,0,0,18,4ZM9,3a1,1,0,0,1,1-1h4a1,1,0,0,1,1,1V4H9ZM5,7A1,1,0,0,1,6,6H18a1,1,0,0,1,1,1V8H5ZM17.136,21.071a1,1,0,0,1-1,.929H7.862a1,1,0,0,1-1-.929L6.074,10H17.926Z"/><path d="M10,20a1,1,0,0,0,1-1V13a1,1,0,0,0-2,0v6A1,1,0,0,0,10,20Z"/><path d="M14,20a1,1,0,0,0,1-1V13a1,1,0,0,0-2,0v6A1,1,0,0,0,14,20Z"/></g></svg>